<svg width="152" height="148" viewBox="0 0 152 148" fill="none" xmlns="http://www.w3.org/2000/svg">
<path d="M0 0.519343C0 0.232518 0.232516 0 0.519341 0L103.143 0C130.126 0 152 21.948 152 49.0223V59.3968C152 59.6836 151.767 59.9162 151.481 59.9162H119.948C119.661 59.9162 119.429 59.6836 119.429 59.3968V49.0223C119.429 39.9976 112.137 32.6815 103.143 32.6815L33.0908 32.6815C32.8039 32.6815 32.5714 32.9141 32.5714 33.2009L32.5714 146.548C32.5714 146.834 32.3368 147.067 32.05 147.063C14.3018 146.783 0 132.26 0 114.385L0 0.519343Z" fill="#ED1846"/>
<path d="M60.2336 65.3631C59.9468 65.3631 59.7139 65.5977 59.7183 65.8845C59.996 83.6936 74.4706 98.0446 92.2857 98.0446H114C116.998 98.0446 119.429 100.483 119.429 103.492L119.429 146.548C119.429 146.834 119.663 147.067 119.95 147.063C137.698 146.783 152 132.26 152 114.385V103.492C152 82.4338 134.987 65.3631 114 65.3631H60.2336Z" fill="#ED1846"/>
</svg>
